<svg xmlns="http://www.w3.org/2000/svg" width="500" height="500" viewBox="0 0 500 500" version="1.1">
	<path d="M 222.500 44.561 C 196.854 48.037, 175.619 54.365, 152.460 65.432 C 127.393 77.411, 107.243 91.906, 87.354 112.264 C 55.199 145.178, 35.477 182.319, 25.775 228.230 C 22.581 243.343, 22.548 243.788, 22.539 271.500 C 22.532 296.125, 22.797 300.947, 24.741 311.500 C 33.261 357.766, 52.921 397.171, 84.211 430.702 C 94.905 442.161, 106.792 451, 111.509 451 C 113.547 451, 115.457 450.143, 116.942 448.561 C 119.595 445.737, 119.549 445.023, 115.628 428.500 C 110.562 407.146, 109.533 396.745, 109.546 367 C 109.558 337.610, 110.362 329.544, 115.613 306.103 C 128.526 248.465, 161.158 194.403, 205.500 157.188 C 235.942 131.639, 274.085 118.251, 298.540 124.530 C 307.738 126.892, 314.573 130.669, 321.677 137.315 C 332.082 147.048, 347.016 169.785, 346.988 175.852 C 346.981 177.308, 345.360 182.100, 343.386 186.500 C 341.412 190.900, 339.577 195.451, 339.308 196.613 C 338.660 199.414, 341.700 205.232, 350.626 218.275 C 354.682 224.202, 358 229.507, 358 230.066 C 358 230.624, 353.200 233.415, 347.333 236.267 C 338.453 240.584, 335.562 241.513, 330.083 241.810 C 323.648 242.159, 323.179 242.008, 309.202 235.084 C 297.785 229.428, 293.983 228, 290.338 228 C 280.970 228, 272.997 235.859, 273.003 245.088 C 273.006 250.835, 276.741 264.817, 283.263 283.500 L 288.500 298.500 288.463 312 C 288.429 324.200, 288.170 326.145, 285.775 332.202 C 282.102 341.493, 273.547 354, 270.864 354 C 266.647 354, 256.272 350.759, 248.500 347.013 C 241.265 343.527, 231.996 336.874, 232.002 335.172 C 232.004 334.802, 234.436 333.230, 237.408 331.677 C 252.403 323.842, 262 308.579, 262 292.566 C 262 285.435, 261.190 284.332, 254 281.677 C 250.543 280.400, 248.805 278.913, 246.500 275.258 C 241.315 267.035, 233.239 259.868, 224.238 255.500 L 215.994 251.500 216.595 242.848 C 217.144 234.951, 217.014 234.014, 215.098 232.098 C 211.254 228.254, 204.546 229.781, 191.653 237.435 C 172.729 248.669, 157.795 269.241, 148.757 296.525 C 140.958 320.066, 138.408 342.799, 139.281 380.999 C 139.848 405.838, 141.475 421.597, 145.568 441.884 C 146.942 448.695, 147.918 454.415, 147.737 454.596 C 147.557 454.777, 146.140 454.267, 144.590 453.462 C 140.216 451.193, 136.449 451.613, 134.073 454.635 C 129.633 460.279, 132.518 465.153, 142.563 468.976 C 145.828 470.219, 151.481 471.464, 155.125 471.743 C 160.937 472.189, 162.010 471.990, 163.875 470.125 C 166.656 467.344, 166.564 465.144, 163.082 451.192 C 160.231 439.768, 158.378 429.692, 155.784 411.500 C 153.988 398.908, 154.062 342.554, 155.890 330.500 C 159.951 303.723, 169.779 279.890, 183.442 263.689 C 187.289 259.128, 198.311 250, 199.972 250 C 200.397 250, 200.962 252.255, 201.227 255.010 C 201.822 261.202, 203.689 263.350, 210.322 265.477 C 220.416 268.712, 230.690 277.423, 236.308 287.507 C 237.822 290.223, 239.887 292.114, 242.767 293.421 C 247.536 295.586, 247.794 296.653, 245.024 302.756 C 240.401 312.942, 232.627 319.136, 221.564 321.451 C 214.050 323.023, 212.469 323.994, 211.566 327.592 C 209.988 333.878, 222.934 349.845, 235.500 357.111 C 252.252 366.798, 275.215 371.850, 295.593 370.332 C 306.162 369.545, 316.024 371.724, 327.781 377.446 C 346.933 386.768, 358.035 402.577, 357.986 420.460 C 357.958 430.924, 357.742 430.937, 348.140 421.085 C 342.183 414.973, 337.621 411.281, 333.448 409.195 C 316.342 400.647, 298.885 400.068, 283.362 407.534 C 266.690 415.553, 259.224 432.371, 264.959 448.986 C 267.114 455.231, 266.895 455.579, 260.187 456.594 C 256.070 457.216, 251.684 456.913, 244 455.475 C 236.702 454.108, 231.760 462.904, 237.054 467.836 C 242.088 472.526, 262.098 473.262, 271.499 469.103 C 274.115 467.946, 276.818 467, 277.506 467 C 278.194 467, 281.253 468.503, 284.303 470.339 C 293.639 475.961, 299.914 477.500, 313.500 477.500 C 322.487 477.500, 326.881 477.038, 331 475.662 C 343.386 471.521, 354.681 464.057, 360.212 456.355 C 362.919 452.585, 363.638 452.132, 365.905 452.770 C 367.332 453.171, 372.550 453.448, 377.500 453.384 C 392.297 453.192, 401.394 448.520, 416.624 433.290 C 446.282 403.632, 468.835 361.175, 477.334 319 C 485.120 280.364, 482.889 239.808, 470.920 202.398 C 449.529 135.538, 397.837 81.560, 331.500 56.814 C 318.506 51.967, 294.488 46.258, 280 44.573 C 263.741 42.681, 236.411 42.676, 222.500 44.561 M 222.500 58.581 C 191.588 62.740, 158.243 75.352, 132 92.810 C 81.001 126.737, 47.153 179.957, 37.411 241.534 C 35.344 254.601, 35.099 284.493, 36.940 299 C 41.993 338.810, 57.057 375.097, 81.568 406.500 C 88.126 414.902, 99.003 426.115, 98.995 424.466 C 98.993 423.935, 98.069 417.425, 96.943 410 C 94.265 392.344, 93.238 356.200, 94.940 339.500 C 102.455 265.785, 133.981 202.634, 188.500 152.088 C 213.161 129.224, 240.648 114.859, 271 108.973 C 278.278 107.561, 292.637 107.575, 299.502 109 C 312.558 111.711, 327.053 119.901, 335.873 129.552 C 343.542 137.942, 358.823 161.582, 360.657 167.894 C 362.712 174.961, 361.874 182.117, 357.986 190.690 L 355.003 197.269 357.191 200.885 C 358.394 202.873, 362.198 208.662, 365.644 213.750 C 372.491 223.859, 373.864 228.173, 372.103 234.051 C 370.159 240.540, 366.935 243.215, 352.836 250.042 L 339.500 256.500 328.800 256.500 L 318.100 256.500 304.701 249.585 C 291.499 242.772, 288 241.932, 288 245.574 C 288 248.684, 291.116 259.566, 297.286 278 L 303.477 296.500 303.489 311.500 C 303.502 328.485, 302.115 334.416, 295.046 347.606 L 291.238 354.713 301.869 355.328 C 315.404 356.111, 322.070 357.893, 334.500 364.049 C 347.402 370.438, 356.077 377.552, 362.509 387.016 C 369.881 397.864, 372.502 406.655, 372.492 420.500 C 372.488 426.550, 371.956 432.942, 371.310 434.704 C 370.251 437.595, 370.335 437.972, 372.176 438.556 C 375.308 439.550, 384.955 438.032, 389.710 435.796 C 395.431 433.107, 401.136 427.398, 404.081 421.415 C 406.155 417.202, 406.500 415.061, 406.500 406.422 C 406.500 396.606, 406.392 396.126, 402.325 387.922 C 397.055 377.291, 390.008 370.052, 378.866 363.824 C 370.204 358.983, 363.380 352.814, 360.628 347.336 C 358.068 342.242, 357.538 334.100, 359.359 327.837 C 361.680 319.853, 366.726 313.793, 374.137 310.089 C 381.477 306.422, 389.671 305.814, 392.193 308.750 C 397.212 314.593, 393.370 322, 385.321 322 C 378.544 322, 372.144 330.336, 373.326 337.622 C 374.130 342.574, 377.594 345.937, 387.235 351.127 C 405.255 360.826, 419.427 380.769, 421.633 399.532 C 421.986 402.539, 422.551 404.993, 422.888 404.984 C 424.085 404.952, 433.901 390.314, 440.680 378.450 C 452.025 358.595, 460.817 333.845, 464.995 310 C 467.781 294.101, 468.713 267.705, 467.057 251.638 C 459.901 182.237, 422.034 123.274, 361.002 86.501 C 336.698 71.858, 310.631 62.889, 279.500 58.460 C 266.998 56.681, 236.137 56.746, 222.500 58.581 M 256 131.282 C 255.175 131.952, 252.959 134.300, 251.075 136.500 C 249.192 138.700, 244.692 142.775, 241.075 145.555 C 231.753 152.721, 229.488 157.129, 229.542 168 C 229.647 189.463, 242.494 208.286, 255.950 206.692 C 265.633 205.546, 277.468 199.515, 285.214 191.780 C 294.803 182.206, 300.045 170.390, 300.778 156.697 C 301.215 148.548, 301.079 147.713, 298.951 145.447 C 296.208 142.528, 292.127 142.267, 288.988 144.808 C 287.132 146.311, 286.622 148.078, 285.966 155.276 C 284.984 166.049, 281.925 173.085, 275.070 180.333 C 270.116 185.571, 261.885 190.473, 256.101 191.630 C 253.468 192.156, 252.875 191.764, 250.404 187.859 C 245.012 179.339, 242.570 167.165, 245.285 162.344 C 245.953 161.157, 249.286 158.141, 252.690 155.639 C 260.833 149.658, 267 141.877, 267 137.585 C 267 131.821, 260.161 127.903, 256 131.282 M 295.811 418.470 C 285.195 421.394, 278.928 427.823, 278.206 436.529 C 277.435 445.830, 283.355 453.434, 295.983 459.363 C 301.222 461.822, 304.118 462.485, 311.081 462.818 C 324.771 463.473, 334.428 460.031, 344.354 450.960 L 349.971 445.826 345.236 440.273 C 335.110 428.400, 331.877 425.251, 327.199 422.705 C 317.413 417.378, 305.574 415.781, 295.811 418.470" stroke="none" fill="black" fill-rule="evenodd"/>
</svg>