<svg width="62" height="55" viewBox="0 0 62 55" fill="none" xmlns="http://www.w3.org/2000/svg">
<g filter="url(#filter0_d_1_18)">
<path d="M17.0812 15.2548L20.9554 31.5563H49.9258L53.8 15.2548H27.3472H17.0812Z" fill="#FFBD59"/>
<path d="M52.3258 34.4524H18.5554C18.2752 34.4524 18.0322 34.2653 17.9704 34.0018L12.7246 11.7598C12.1936 9.50727 10.1512 7.9347 7.7584 7.9347H4.6C4.2688 7.9347 4 7.67521 4 7.35548C4 7.03575 4.2688 6.77626 4.6 6.77626H7.7584C10.7146 6.77626 13.2382 8.71954 13.8946 11.5027L19.0336 33.2946H51.8464L56.6476 12.9386H27.3472C27.016 12.9386 26.7472 12.6791 26.7472 12.3593C26.7472 12.0396 27.016 11.7801 27.3472 11.7801H57.4C57.583 11.7801 57.7552 11.8606 57.8686 11.9979C57.9826 12.1358 58.0258 12.3159 57.9844 12.4879L52.9102 34.0018C52.8484 34.2653 52.606 34.4524 52.3258 34.4524Z" fill="black"/>
<path d="M15.6628 42.4421C13.0504 42.4421 10.9246 40.3906 10.9246 37.8686C10.9246 35.3467 13.0498 33.2946 15.6628 33.2946H52.288C52.6198 33.2946 52.888 33.5535 52.888 33.8738C52.888 34.1941 52.6198 34.453 52.288 34.453H15.6628C13.7122 34.453 12.1246 35.9856 12.1246 37.8686C12.1246 39.7517 13.7122 41.2837 15.6628 41.2837C15.994 41.2837 16.2628 41.5426 16.2628 41.8629C16.2628 42.1832 15.994 42.4421 15.6628 42.4421Z" fill="black"/>
<path d="M48.0544 46.1161C45.6256 46.1161 43.6492 44.2082 43.6492 41.8629C43.6492 39.5177 45.6256 37.6097 48.0544 37.6097C50.4838 37.6097 52.4602 39.5177 52.4602 41.8629C52.4602 44.2082 50.4838 46.1161 48.0544 46.1161ZM48.0544 38.7682C46.2874 38.7682 44.8492 40.156 44.8492 41.8629C44.8492 43.5699 46.2868 44.9577 48.0544 44.9577C49.822 44.9577 51.2602 43.5699 51.2602 41.8629C51.2602 40.156 49.822 38.7682 48.0544 38.7682Z" fill="black"/>
<path d="M24.3754 46.1161C21.9466 46.1161 19.9702 44.2082 19.9702 41.8629C19.9702 39.5177 21.9466 37.6097 24.3754 37.6097C26.8048 37.6097 28.7812 39.5177 28.7812 41.8629C28.7812 44.2082 26.8048 46.1161 24.3754 46.1161ZM24.3754 38.7682C22.6078 38.7682 21.1702 40.156 21.1702 41.8629C21.1702 43.5699 22.6078 44.9577 24.3754 44.9577C26.143 44.9577 27.5812 43.5699 27.5812 41.8629C27.5812 40.156 26.143 38.7682 24.3754 38.7682Z" fill="black"/>
<path d="M38.851 42.4422H28.1812C27.85 42.4422 27.5812 42.1832 27.5812 41.8629C27.5812 41.5426 27.85 41.2837 28.1812 41.2837H38.851C39.1828 41.2837 39.451 41.5426 39.451 41.8629C39.451 42.1832 39.1828 42.4422 38.851 42.4422Z" fill="black"/>
<path d="M52.2874 12.938H36.4174C36.0856 12.938 35.8174 12.6785 35.8174 12.3588V4.3563C35.8174 4.03657 36.0856 3.77708 36.4174 3.77708H52.2874C52.6192 3.77708 52.8874 4.03657 52.8874 4.3563V12.3588C52.8874 12.6791 52.6192 12.938 52.2874 12.938ZM37.0174 11.7795H51.6874V4.93552H37.0174V11.7795Z" fill="black"/>
<path d="M20.6866 12.938C20.3554 12.938 20.0866 12.6785 20.0866 12.3588V0.579217C20.0866 0.259489 20.3554 0 20.6866 0H41.5096C41.8414 0 42.1096 0.259489 42.1096 0.579217V4.35629C42.1096 4.67602 41.8414 4.93551 41.5096 4.93551C41.1778 4.93551 40.9096 4.67602 40.9096 4.35629V1.15843H21.2866V12.3588C21.2866 12.6791 21.0178 12.938 20.6866 12.938Z" fill="black"/>
<path d="M49.8873 6.67317H38.8173V10.0419H49.8873V6.67317Z" fill="#FFBD59"/>
</g>
<defs>
<filter id="filter0_d_1_18" x="0" y="0" width="61.9998" height="54.1161" filterUnits="userSpaceOnUse" color-interpolation-filters="sRGB">
<feFlood flood-opacity="0" result="BackgroundImageFix"/>
<feColorMatrix in="SourceAlpha" type="matrix" values="0 0 0 0 0 0 0 0 0 0 0 0 0 0 0 0 0 0 127 0" result="hardAlpha"/>
<feOffset dy="4"/>
<feGaussianBlur stdDeviation="2"/>
<feComposite in2="hardAlpha" operator="out"/>
<feColorMatrix type="matrix" values="0 0 0 0 0 0 0 0 0 0 0 0 0 0 0 0 0 0 0.25 0"/>
<feBlend mode="normal" in2="BackgroundImageFix" result="effect1_dropShadow_1_18"/>
<feBlend mode="normal" in="SourceGraphic" in2="effect1_dropShadow_1_18" result="shape"/>
</filter>
</defs>
</svg>
